<svg width="59" height="59" viewBox="0 0 59 59" fill="none" xmlns="http://www.w3.org/2000/svg">
<path d="M14.75 14.75C22.8962 6.6038 36.1038 6.6038 44.25 14.75C52.3962 22.8962 52.3962 36.1038 44.25 44.25L29.5 59L14.75 44.25C6.60379 36.1038 6.6038 22.8962 14.75 14.75Z" fill="#00A4FF"/>
<circle opacity="0.4" cx="29.2796" cy="29.6271" r="13.9064" fill="white"/>
<path d="M31.3333 28.6667C31.8856 28.6667 32.3333 28.219 32.3333 27.6667C32.3333 27.1144 31.8856 26.6667 31.3333 26.6667C30.781 26.6667 30.3333 27.1144 30.3333 27.6667C30.3333 28.219 30.781 28.6667 31.3333 28.6667Z" fill="white"/>
<path d="M23 25.3333C23 24.597 23.597 24 24.3333 24H33.6667C34.403 24 35 24.597 35 25.3333V34.6667C35 35.403 34.403 36 33.6667 36H24.3333C23.597 36 23 35.403 23 34.6667V25.3333ZM33.6667 25.3333H24.3333V30.6129L26.5836 28.8128C26.827 28.618 27.173 28.618 27.4165 28.8128L30.2839 31.1067L31.1953 30.1953C31.4556 29.9349 31.8777 29.9349 32.1381 30.1953L33.6667 31.7238V25.3333ZM24.3333 34.6667H33.6667V33.6095L31.6667 31.6095L30.8048 32.4714C30.5646 32.7116 30.1822 32.7328 29.9169 32.5206L27 30.1871L24.3333 32.3204V34.6667Z" fill="white"/>
</svg>
