<svg width="80" height="80" viewBox="0 0 80 80" fill="none" xmlns="http://www.w3.org/2000/svg">
<g opacity="0.2">
<path d="M51.6667 33.3333C54.4281 33.3333 56.6667 31.0948 56.6667 28.3333C56.6667 25.5719 54.4281 23.3333 51.6667 23.3333C48.9052 23.3333 46.6667 25.5719 46.6667 28.3333C46.6667 31.0948 48.9052 33.3333 51.6667 33.3333Z" fill="#00A4FF"/>
<path d="M10 16.6667C10 12.9848 12.9848 10 16.6667 10H63.3333C67.0152 10 70 12.9848 70 16.6667V63.3333C70 67.0152 67.0152 70 63.3333 70H16.6667C12.9848 70 10 67.0152 10 63.3333V16.6667ZM63.3333 16.6667H16.6667V43.0647L27.9178 34.0638C29.1352 33.0899 30.865 33.0899 32.0824 34.0638L46.4194 45.5333L50.9764 40.9763C52.2782 39.6746 54.3887 39.6746 55.6905 40.9763L63.3333 48.6192V16.6667ZM16.6667 63.3333H63.3333V58.0473L53.3335 48.0474L49.0238 52.357C47.8228 53.558 45.9108 53.6639 44.5845 52.6029L30.0001 40.9354L16.6667 51.6022V63.3333Z" fill="#00A4FF"/>
</g>
</svg>
