<svg width="16" height="16" viewBox="0 0 16 16" fill="none" xmlns="http://www.w3.org/2000/svg">
<path d="M14.9733 4.00033C14.4599 4.23366 13.9066 4.38699 13.3333 4.46033C13.9199 4.10699 14.3733 3.54699 14.5866 2.87366C14.0333 3.20699 13.4199 3.44033 12.7733 3.57366C12.2466 3.00033 11.5066 2.66699 10.6666 2.66699C9.09994 2.66699 7.81994 3.94699 7.81994 5.52699C7.81994 5.75366 7.84661 5.97366 7.89328 6.18033C5.51994 6.06033 3.40661 4.92033 1.99994 3.19366C1.75328 3.61366 1.61328 4.10699 1.61328 4.62699C1.61328 5.62033 2.11328 6.50033 2.88661 7.00033C2.41328 7.00033 1.97328 6.86699 1.58661 6.66699C1.58661 6.66699 1.58661 6.66699 1.58661 6.68699C1.58661 8.07366 2.57328 9.23366 3.87994 9.49366C3.63994 9.56033 3.38661 9.59366 3.12661 9.59366C2.94661 9.59366 2.76661 9.57366 2.59328 9.54033C2.95328 10.667 3.99994 11.507 5.25994 11.527C4.28661 12.3003 3.05328 12.7537 1.70661 12.7537C1.47994 12.7537 1.25328 12.7403 1.02661 12.7137C2.29328 13.527 3.79994 14.0003 5.41328 14.0003C10.6666 14.0003 13.5533 9.64033 13.5533 5.86033C13.5533 5.73366 13.5533 5.61366 13.5466 5.48699C14.1066 5.08699 14.5866 4.58033 14.9733 4.00033Z" fill="white"/>
</svg>
