<svg width="32" height="32" viewBox="0 0 32 32" fill="none" xmlns="http://www.w3.org/2000/svg">
<path d="M16 5.33301C16.7364 5.33301 17.3333 5.92996 17.3333 6.66634V14.6663H25.3333C26.0697 14.6663 26.6666 15.2633 26.6666 15.9997C26.6666 16.7361 26.0697 17.333 25.3333 17.333H17.3333V25.333C17.3333 26.0694 16.7364 26.6663 16 26.6663C15.2636 26.6663 14.6666 26.0694 14.6666 25.333V17.333H6.66665C5.93027 17.333 5.33331 16.7361 5.33331 15.9997C5.33331 15.2633 5.93027 14.6663 6.66665 14.6663H14.6666V6.66634C14.6666 5.92996 15.2636 5.33301 16 5.33301Z" fill="#00A4FF"/>
</svg>
