<svg width="16" height="16" viewBox="0 0 16 16" fill="none" xmlns="http://www.w3.org/2000/svg">
<path d="M8.00004 1.36035C4.33337 1.36035 1.33337 4.35369 1.33337 8.04035C1.33337 11.3737 3.77337 14.1404 6.96004 14.6404V9.97369H5.26671V8.04035H6.96004V6.56702C6.96004 4.89369 7.95337 3.97369 9.48004 3.97369C10.2067 3.97369 10.9667 4.10035 10.9667 4.10035V5.74702H10.1267C9.30004 5.74702 9.04004 6.26035 9.04004 6.78702V8.04035H10.8934L10.5934 9.97369H9.04004V14.6404C10.611 14.3922 12.0415 13.5907 13.0733 12.3804C14.1051 11.1701 14.6703 9.63078 14.6667 8.04035C14.6667 4.35369 11.6667 1.36035 8.00004 1.36035Z" fill="white"/>
</svg>
