<svg width="16" height="16" viewBox="0 0 16 16" fill="none" xmlns="http://www.w3.org/2000/svg">
<path d="M10.0467 1.33301H5.95337C2.22004 1.33301 1.33337 2.21967 1.33337 5.95301V10.0463C1.33337 13.7797 2.22004 14.6663 5.95337 14.6663H10.0467C13.78 14.6663 14.6667 13.7797 14.6667 10.0463V5.95301C14.6667 2.21967 13.78 1.33301 10.0467 1.33301ZM12.1 10.8463H11.1267C10.76 10.8463 10.6467 10.5463 10 9.88634C9.41337 9.33301 9.16004 9.25301 9.02004 9.25301C8.82671 9.25301 8.76671 9.30634 8.76671 9.58634V10.4597C8.76671 10.693 8.69337 10.8397 8.07337 10.8397C7.04671 10.8397 5.90671 10.213 5.10671 9.05968C3.90004 7.36634 3.57337 6.08634 3.57337 5.83301C3.57337 5.69301 3.62004 5.55968 3.90004 5.55968H4.88004C5.12671 5.55968 5.22004 5.66634 5.31337 5.93301C5.79337 7.33301 6.59337 8.53301 6.92004 8.53301C7.04671 8.53301 7.10004 8.47301 7.10004 8.16634V6.73301C7.06671 6.07968 6.71337 6.01968 6.71337 5.78634C6.71337 5.66634 6.80671 5.55968 6.96004 5.55968H8.48671C8.69337 5.55968 8.76671 5.66634 8.76671 5.91967V7.84634C8.76671 8.05301 8.85337 8.12634 8.92004 8.12634C9.04004 8.12634 9.14671 8.05301 9.36671 7.82634C10.0667 7.04634 10.5667 5.83967 10.5667 5.83967C10.6334 5.69968 10.74 5.56634 11 5.56634H11.9534C12.2467 5.56634 12.3134 5.71968 12.2467 5.92634C12.1267 6.49301 10.94 8.16634 10.9534 8.16634C10.8467 8.33301 10.8067 8.40634 10.9534 8.59968C11.0534 8.73968 11.3934 9.03301 11.62 9.29301C12.0334 9.76634 12.3534 10.1597 12.44 10.433C12.5134 10.7063 12.38 10.8463 12.1 10.8463Z" fill="white"/>
</svg>
