<svg width="164" height="48" viewBox="0 0 164 48" fill="none" xmlns="http://www.w3.org/2000/svg">
<g clip-path="url(#clip0_447_13041)">
<path d="M163.538 0H0V48H163.538V0Z" fill="white"/>
<path d="M93.661 32.9141L91.4991 36.6107L89.3294 32.9141H88.9353V38.3854H89.335L89.3357 33.7196L91.3867 37.1974H91.6036L93.6546 33.7196L93.6653 33.705L93.6604 38.3854H94.055V32.9141H93.661Z" fill="#9328FF"/>
<path d="M8.0769 38.3854V32.9141H11.1099V33.2663H8.45261V35.54H10.8598V35.8845H8.45261V38.3854H8.0769Z" fill="#9328FF"/>
<path d="M15.0012 32.9141H14.6255V38.3854H15.0012V32.9141Z" fill="#9328FF"/>
<path d="M20.2332 38.3854L18.2616 32.9141H18.6839L20.4393 37.7283L22.2572 32.9141H22.6788L20.6309 38.3854H20.2332Z" fill="#9328FF"/>
<path d="M26.0499 38.3854V32.9141H29.0829V33.2663H26.4256V35.4775H28.8328V35.8219H26.4256V38.0331H29.0829V38.3854H26.0499Z" fill="#9328FF"/>
<path d="M46.7839 32.9141H46.4082V38.3854H46.7839V32.9141Z" fill="#9328FF"/>
<path d="M50.6354 38.3854V32.9141H51.0111V38.0331H53.5433V38.3854H50.6354Z" fill="#9328FF"/>
<path d="M56.9963 38.3854V32.9141H57.3721V38.0331H59.9043V38.3854H56.9963Z" fill="#9328FF"/>
<path d="M63.733 32.9141H63.3573V38.3854H63.733V32.9141Z" fill="#9328FF"/>
<path d="M70.0077 38.5106C69.6067 38.5106 69.2313 38.4348 68.8917 38.2853C68.5519 38.1357 68.2549 37.9288 68.009 37.6702C67.7628 37.4115 67.5672 37.1052 67.4276 36.7598C67.288 36.4149 67.2173 36.0414 67.2173 35.6497C67.2173 35.2583 67.288 34.8848 67.4276 34.5399C67.5673 34.1944 67.763 33.8882 68.009 33.6295C68.2547 33.371 68.5516 33.164 68.8917 33.0143C69.2313 32.8648 69.6069 32.7891 70.0077 32.7891C70.4032 32.7891 70.7761 32.8648 71.1159 33.0143C71.4558 33.1641 71.7542 33.3711 72.0026 33.6297C72.2511 33.8884 72.4479 34.1947 72.5877 34.5399C72.7273 34.8852 72.798 35.2585 72.798 35.6497C72.798 36.0411 72.7273 36.4145 72.5877 36.7598C72.448 37.105 72.2511 37.4113 72.0026 37.67C71.7539 37.9287 71.4556 38.1357 71.1158 38.2853C70.7761 38.4348 70.4033 38.5106 70.0077 38.5106ZM70.0077 33.1412C69.6777 33.1412 69.3632 33.2034 69.0729 33.3259C68.7827 33.4486 68.5248 33.6228 68.3065 33.8437C68.0881 34.0646 67.914 34.3317 67.789 34.6375C67.6641 34.9432 67.6008 35.2838 67.6008 35.6497C67.6008 36.0159 67.6641 36.3565 67.789 36.662C67.9139 36.9679 68.088 37.2351 68.3065 37.456C68.5249 37.6772 68.7827 37.8514 69.0729 37.9737C69.3629 38.0962 69.6774 38.1583 70.0077 38.1583C70.3326 38.1583 70.6457 38.0962 70.9383 37.9737C71.2313 37.8512 71.4894 37.6769 71.7052 37.4558C71.9208 37.2349 72.0947 36.968 72.2221 36.6624C72.3498 36.3568 72.4145 36.016 72.4145 35.6497C72.4145 35.2837 72.3498 34.9429 72.2221 34.6372C72.0947 34.3317 71.9207 34.0648 71.7052 33.8439C71.4894 33.623 71.2314 33.4487 70.9383 33.3259C70.6454 33.2034 70.3323 33.1412 70.0077 33.1412Z" fill="#9328FF"/>
<path d="M97.9066 38.3854V32.9141H100.94V33.2663H98.2824V35.4775H100.69V35.8219H98.2824V38.0331H100.94V38.3854H97.9066Z" fill="#9328FF"/>
<path d="M107.004 38.5106C106.613 38.5106 106.242 38.4373 105.902 38.2928C105.562 38.1482 105.262 37.9451 105.008 37.6889C104.754 37.4328 104.551 37.1277 104.404 36.7822C104.256 36.4374 104.182 36.0564 104.182 35.6497C104.182 35.2483 104.256 34.8686 104.404 34.5213C104.551 34.1733 104.754 33.867 105.008 33.6108C105.261 33.3547 105.562 33.1515 105.902 33.0068C106.242 32.8624 106.613 32.7891 107.004 32.7891C107.405 32.7891 107.784 32.8598 108.129 32.9995C108.453 33.1305 108.729 33.3167 108.95 33.5531L108.672 33.8309C108.481 33.615 108.246 33.4466 107.974 33.33C107.68 33.2048 107.357 33.1412 107.011 33.1412C106.692 33.1412 106.381 33.2019 106.085 33.3217C105.79 33.4414 105.527 33.6128 105.303 33.8313C105.079 34.0495 104.899 34.3151 104.766 34.6206C104.633 34.9267 104.565 35.273 104.565 35.6497C104.565 36.0268 104.634 36.3733 104.77 36.6794C104.905 36.9847 105.087 37.2502 105.311 37.4684C105.534 37.6868 105.796 37.8582 106.089 37.9778C106.381 38.0975 106.692 38.1583 107.011 38.1583C107.425 38.1583 107.78 38.0878 108.066 37.9487C108.351 37.8103 108.585 37.6369 108.762 37.4335C108.939 37.23 109.068 37.0072 109.145 36.7712C109.222 36.5374 109.267 36.274 109.277 35.9882L109.28 35.9236H107.113V35.5792H109.631C109.637 35.6221 109.642 35.6644 109.646 35.706C109.651 35.7641 109.653 35.8236 109.653 35.8842C109.653 36.2098 109.602 36.5333 109.5 36.8459C109.399 37.1563 109.232 37.4392 109.005 37.6866C108.763 37.9445 108.471 38.1487 108.139 38.2929C107.807 38.4375 107.425 38.5106 107.004 38.5106Z" fill="#9328FF"/>
<path d="M116.995 38.3854L116.385 36.7676H113.704L113.095 38.3854H112.681L114.798 32.9141H115.291L117.408 38.3854H116.995ZM113.837 36.4232H116.253L115.045 33.3991L113.837 36.4232Z" fill="#9328FF"/>
<path d="M120.78 38.3854V32.9141H122.531C122.762 32.9141 122.982 32.9522 123.185 33.0274C123.388 33.1024 123.566 33.21 123.716 33.347C123.865 33.4837 123.985 33.6505 124.073 33.8427C124.16 34.0347 124.204 34.2508 124.204 34.4852C124.204 34.7196 124.16 34.9358 124.073 35.1277C123.985 35.3199 123.865 35.4866 123.716 35.6232C123.566 35.7605 123.388 35.8681 123.185 35.9431C122.982 36.0182 122.762 36.0564 122.531 36.0564H121.156V38.3854H120.78ZM121.156 35.7042H122.554C122.734 35.7042 122.902 35.6723 123.055 35.6096C123.208 35.5469 123.342 35.4597 123.454 35.3503C123.566 35.241 123.656 35.1109 123.721 34.9638C123.787 34.816 123.82 34.6549 123.82 34.4852C123.82 34.3156 123.787 34.1533 123.721 34.0031C123.656 33.8529 123.566 33.7225 123.453 33.6155C123.341 33.5091 123.207 33.4234 123.055 33.3607C122.902 33.298 122.733 33.2663 122.554 33.2663H121.156V35.7042Z" fill="#9328FF"/>
<path d="M128.033 32.9141H127.657V38.3854H128.033V32.9141Z" fill="#9328FF"/>
<path d="M135.302 38.3854L133.612 35.9235L131.921 38.3854H131.47L133.366 35.5556L131.572 32.9141H132.039L133.611 35.2117L135.2 32.9141H135.651L133.865 35.5556L135.754 38.3854H135.302Z" fill="#9328FF"/>
<path d="M139.191 38.3854V32.9141H142.224V33.2663H139.567V35.4775H141.974V35.8219H139.567V38.0331H142.224V38.3854H139.191Z" fill="#9328FF"/>
<path d="M145.911 38.3854V32.9141H146.287V38.0331H148.819V38.3854H145.911Z" fill="#9328FF"/>
<path d="M153.718 38.5106C153.523 38.5106 153.327 38.4788 153.136 38.4161C152.945 38.3532 152.764 38.259 152.599 38.136C152.433 38.0129 152.284 37.8585 152.155 37.6772C152.037 37.5099 151.946 37.3163 151.886 37.1009L152.24 36.9534C152.287 37.11 152.352 37.2577 152.434 37.3936C152.528 37.5493 152.641 37.6857 152.771 37.799C152.901 37.9129 153.049 38.0021 153.211 38.0642C153.374 38.1267 153.55 38.1583 153.734 38.1583C153.912 38.1583 154.084 38.1323 154.245 38.0811C154.409 38.0295 154.554 37.952 154.676 37.851C154.8 37.7495 154.899 37.6243 154.97 37.4786C155.042 37.3326 155.078 37.167 155.078 36.9863C155.078 36.6715 154.96 36.4123 154.728 36.2158C154.504 36.027 154.177 35.8563 153.754 35.7083L153.403 35.5835C153.238 35.5267 153.075 35.4581 152.918 35.3792C152.762 35.3013 152.62 35.2059 152.498 35.0955C152.377 34.9869 152.278 34.8553 152.203 34.704C152.13 34.5546 152.092 34.3758 152.092 34.1727C152.092 33.9897 152.131 33.8117 152.208 33.6437C152.285 33.4751 152.394 33.3269 152.533 33.203C152.673 33.0784 152.842 32.9771 153.037 32.9021C153.232 32.8271 153.448 32.7891 153.679 32.7891C153.925 32.7891 154.144 32.8258 154.329 32.8981C154.515 32.9711 154.676 33.0625 154.808 33.1698C154.94 33.2769 155.046 33.394 155.123 33.5177C155.188 33.6218 155.238 33.7198 155.273 33.8098L154.921 33.9564C154.894 33.8787 154.855 33.8 154.807 33.7217C154.743 33.62 154.659 33.5243 154.556 33.4373C154.451 33.3497 154.327 33.2779 154.186 33.2235C154.043 33.169 153.876 33.1412 153.687 33.1412C153.524 33.1412 153.369 33.1661 153.225 33.2149C153.081 33.264 152.951 33.3345 152.839 33.4246C152.726 33.5159 152.636 33.6267 152.572 33.7541C152.508 33.8821 152.476 34.0229 152.476 34.1727C152.476 34.3178 152.506 34.4474 152.565 34.5578C152.624 34.6667 152.707 34.7651 152.812 34.8502C152.914 34.9337 153.036 35.0099 153.176 35.0768C153.311 35.1422 153.463 35.2049 153.627 35.263L153.986 35.3955C154.192 35.468 154.388 35.551 154.569 35.6428C154.748 35.7335 154.905 35.8418 155.035 35.9648C155.164 36.0864 155.269 36.2312 155.346 36.3953C155.423 36.5582 155.461 36.7491 155.461 36.9628C155.461 37.2325 155.409 37.4671 155.305 37.6601C155.2 37.8548 155.064 38.0163 154.9 38.1402C154.735 38.2651 154.546 38.3589 154.338 38.4192C154.128 38.4799 153.92 38.5106 153.718 38.5106Z" fill="#9328FF"/>
<path d="M42.1626 32.9141L40.0007 36.6107L37.831 32.9141H37.4369V38.3854H37.8366L37.8373 33.7196L39.8883 37.1974H40.1052L42.1562 33.7196L42.1668 33.705L42.162 38.3854H42.5566V32.9141H42.1626Z" fill="#9328FF"/>
<path d="M80.0417 32.9141V37.7415L76.9053 32.9141H76.3528V38.3854H76.7285L76.7269 33.3837L79.9978 38.3854H80.4174V32.9141H80.0417Z" fill="#9328FF"/>
<path d="M149.159 25.9412V10.3185H143.695V9.48926H155.461V10.3185H149.997V25.9412H149.159Z" fill="#9328FF"/>
<path d="M137.831 25.9412L134.928 18.1147C134.713 18.1543 134.507 18.1543 134.35 18.1543H126.867V17.2761H134.291C135.257 17.2761 136.065 16.9426 136.761 16.2566C137.457 15.5705 137.795 14.774 137.795 13.8218C137.795 12.8695 137.457 12.0731 136.761 11.387C136.065 10.7009 135.257 10.3674 134.291 10.3674H126.867V9.48926H134.291C135.506 9.48926 136.554 9.91446 137.404 10.7531C138.255 11.5917 138.686 12.6241 138.686 13.8218C138.686 14.7541 138.398 15.6051 137.831 16.3511C137.289 17.0633 136.59 17.5754 135.751 17.8746L138.737 25.9412H137.831Z" fill="#9328FF"/>
<path d="M120.945 25.9412L115.026 10.8854L109.106 25.9412H108.142L114.558 9.48926H115.494L121.91 25.9412H120.945Z" fill="#9328FF"/>
<path d="M91.2546 25.9412V9.48926H92.1759V25.1127H100.088V25.9412H91.2546Z" fill="#9328FF"/>
<path d="M86.2634 25.9412L80.3439 10.8854L74.4243 25.9412H73.46L79.8756 9.48926H80.8122L87.2277 25.9412H86.2634Z" fill="#9328FF"/>
<path d="M58.4376 25.9412V9.48926H64.912C66.2155 9.48926 67.2658 9.86057 68.0338 10.593C68.8063 11.3302 69.1818 12.3013 69.1818 13.5617C69.1818 14.5141 68.916 15.3287 68.3916 15.9827C67.8658 16.6387 67.231 17.0507 66.5049 17.2074L65.2093 17.487L66.5178 17.6921C67.318 17.8176 68.0215 18.2701 68.6087 19.0371C69.2003 19.8105 69.5003 20.6778 69.5003 21.6147C69.5003 22.9439 69.1048 24.0078 68.3249 24.7769C67.5418 25.5495 66.443 25.9412 65.0591 25.9412H58.4376ZM59.3589 25.1127H64.8386C65.9748 25.1127 66.879 24.7863 67.5262 24.1424C68.1761 23.4959 68.5056 22.6113 68.5056 21.5132C68.5056 20.5207 68.1784 19.664 67.533 18.9672C66.8845 18.2679 65.978 17.9135 64.8386 17.9135H59.3589V25.1127ZM59.3589 17.0852H64.7406C65.8137 17.0852 66.6655 16.766 67.2725 16.1365C67.8794 15.5071 68.1871 14.692 68.1871 13.7141C68.1871 12.7544 67.8802 11.9402 67.2748 11.2941C66.6673 10.6462 65.8147 10.3177 64.7406 10.3177H59.3589V17.0852Z" fill="#9328FF"/>
<path d="M46.7114 25.9412C44.4236 25.9412 42.55 25.1583 41.1425 23.6144C39.7289 22.0644 39.0122 20.0796 39.0122 17.7152C39.0122 15.351 39.7289 13.3662 41.1425 11.816C42.5501 10.2721 44.4238 9.48926 46.7114 9.48926C48.9828 9.48926 50.8525 10.2723 52.2686 11.8166C53.69 13.3667 54.4107 15.3513 54.4107 17.7152C54.4107 20.0794 53.69 22.0639 52.2686 23.6139C50.8527 25.1582 48.983 25.9412 46.7114 25.9412ZM46.7114 10.2891C44.6897 10.2891 43.0472 10.9932 41.8296 12.3818C40.6202 13.7615 40.0069 15.5559 40.0069 17.7152C40.0069 19.8581 40.62 21.6483 41.8292 23.0358C43.0465 24.4328 44.6891 25.1411 46.7114 25.1411C48.7004 25.1411 50.3344 24.4332 51.5681 23.037C52.7943 21.649 53.416 19.8585 53.416 17.7152C53.416 15.5558 52.7984 13.7612 51.5805 12.3812C50.3545 10.993 48.7163 10.2891 46.7114 10.2891Z" fill="#9328FF"/>
<path d="M26.1061 25.9412V9.48926H27.0273V25.1127H34.9396V25.9412H26.1061Z" fill="#9328FF"/>
<path d="M16.1191 25.9413C13.8597 25.9413 11.934 25.165 10.3954 23.634C8.85694 22.1039 8.0769 20.1084 8.0769 17.703C8.0769 15.2982 8.85682 13.3069 10.395 11.7843C11.9338 10.2614 13.8598 9.48926 16.1191 9.48926C18.4302 9.48926 20.3786 10.3356 21.9147 12.006L21.2514 12.4842C20.667 11.8355 19.9431 11.3105 19.0965 10.922C18.1782 10.5013 17.1765 10.2879 16.1191 10.2879C14.1184 10.2879 12.425 10.988 11.086 12.3689C9.74943 13.7477 9.07168 15.5423 9.07168 17.703C9.07168 19.847 9.74908 21.6412 11.085 23.036C12.4235 24.4337 14.1173 25.1424 16.1191 25.1424C17.146 25.1424 18.103 24.937 18.9639 24.5318C19.8175 24.1303 20.5322 23.6447 21.0883 23.0886L21.1579 23.019V18.7637H14.9849V17.9894H22.0791V23.3684C20.5251 25.0757 18.5204 25.9413 16.1191 25.9413Z" fill="#9328FF"/>
<path d="M160.654 45.1158H2.8844V2.88477H160.654V45.1158ZM3.65363 44.3466H159.885V3.654H3.65363V44.3466Z" fill="#9328FF"/>
</g>
<defs>
<clipPath id="clip0_447_13041">
<rect width="163.538" height="48" fill="white"/>
</clipPath>
</defs>
</svg>
