<svg width="165" height="48" viewBox="0 0 165 48" fill="none" xmlns="http://www.w3.org/2000/svg">
<path d="M63.0334 32.1142H58.8907V12.6551H67.993C70.0352 12.6551 71.63 13.258 72.7775 14.4639C73.9445 15.6503 74.528 17.1382 74.528 18.9275C74.528 20.6974 73.9445 22.1853 72.7775 23.3912C71.6106 24.597 70.0157 25.2 67.993 25.2H63.0334V32.1142ZM67.4387 21.5532C68.275 21.5532 68.9557 21.3198 69.4809 20.853C70.0255 20.3668 70.2977 19.725 70.2977 18.9275C70.2977 18.1301 70.0255 17.498 69.4809 17.0312C68.9557 16.545 68.275 16.3019 67.4387 16.3019H63.0334V21.5532H67.4387ZM78.8464 16.5061C78.2435 16.5061 77.7184 16.2921 77.271 15.8643C76.8431 15.4169 76.6292 14.8918 76.6292 14.2889C76.6292 13.6859 76.8431 13.1705 77.271 12.7426C77.7184 12.3148 78.2435 12.1008 78.8464 12.1008C79.4688 12.1008 79.9939 12.3148 80.4218 12.7426C80.8497 13.1705 81.0636 13.6859 81.0636 14.2889C81.0636 14.8918 80.8497 15.4169 80.4218 15.8643C79.9939 16.2921 79.4688 16.5061 78.8464 16.5061ZM80.7136 32.1142H77.0085V18.0231H80.7136V32.1142ZM90.9516 32.4643C88.7733 32.4643 86.9839 31.7738 85.5836 30.3929C84.1832 29.012 83.483 27.2324 83.483 25.0541C83.483 22.8952 84.1832 21.1253 85.5836 19.7444C86.9839 18.3635 88.7733 17.6731 90.9516 17.6731C93.4411 17.6731 95.2985 18.5191 96.5238 20.2112L94.1024 22.4868C93.4217 21.4754 92.4297 20.9697 91.1266 20.9697C89.9986 20.9697 89.0747 21.349 88.3551 22.1075C87.6549 22.8466 87.3048 23.8288 87.3048 25.0541C87.3048 26.2794 87.6549 27.2713 88.3551 28.0298C89.0747 28.7884 89.9986 29.1676 91.1266 29.1676C92.3908 29.1676 93.3828 28.6619 94.1024 27.6506L96.5238 29.897C95.2985 31.6085 93.4411 32.4643 90.9516 32.4643ZM104.022 32.4643C102.797 32.4643 101.62 32.2698 100.492 31.8808C99.3836 31.4918 98.4597 30.957 97.7206 30.2762L99.3252 27.6797C99.8698 28.1854 100.609 28.6328 101.542 29.0217C102.476 29.4107 103.361 29.6052 104.197 29.6052C104.975 29.6052 105.559 29.4691 105.948 29.1968C106.356 28.9245 106.56 28.555 106.56 28.0882C106.56 27.7381 106.346 27.4561 105.919 27.2421C105.51 27.0087 104.995 26.8434 104.372 26.7462C103.769 26.6489 103.098 26.5031 102.359 26.3086C101.64 26.1141 100.969 25.8807 100.346 25.6084C99.7434 25.3361 99.228 24.9082 98.8001 24.3247C98.3916 23.7218 98.1874 22.9827 98.1874 22.1075C98.1874 20.8627 98.7028 19.8125 99.7337 18.9567C100.764 18.1009 102.175 17.6731 103.964 17.6731C106.142 17.6731 108.039 18.3149 109.653 19.5985L108.165 22.1367C107.718 21.6699 107.115 21.2809 106.356 20.9697C105.617 20.6585 104.829 20.5029 103.993 20.5029C103.332 20.5029 102.797 20.6391 102.388 20.9114C101.98 21.1642 101.776 21.4948 101.776 21.9033C101.776 22.2145 101.98 22.477 102.388 22.691C102.797 22.8855 103.312 23.0313 103.935 23.1286C104.557 23.2258 105.228 23.3814 105.948 23.5954C106.667 23.7899 107.338 24.033 107.961 24.3247C108.583 24.597 109.099 25.0444 109.507 25.6667C109.915 26.2891 110.12 27.0476 110.12 27.9423C110.12 29.2649 109.575 30.354 108.486 31.2098C107.416 32.0461 105.928 32.4643 104.022 32.4643ZM119.472 32.4643C117.293 32.4643 115.494 31.7836 114.075 30.4221C112.655 29.0606 111.945 27.2713 111.945 25.0541C111.945 22.973 112.626 21.2226 113.987 19.8028C115.368 18.383 117.118 17.6731 119.238 17.6731C121.339 17.6731 123.041 18.3927 124.344 19.8319C125.647 21.2517 126.298 23.1189 126.298 25.4333V26.2502H115.825C115.942 27.1838 116.36 27.9618 117.079 28.5841C117.799 29.2065 118.733 29.5177 119.88 29.5177C120.503 29.5177 121.174 29.3913 121.893 29.1384C122.632 28.8856 123.216 28.5452 123.644 28.1174L125.277 30.5096C123.858 31.8127 121.922 32.4643 119.472 32.4643ZM122.71 23.7413C122.652 22.9438 122.331 22.2242 121.747 21.5824C121.183 20.9405 120.347 20.6196 119.238 20.6196C118.188 20.6196 117.371 20.9405 116.788 21.5824C116.204 22.2048 115.864 22.9244 115.767 23.7413H122.71ZM132.68 32.1142H128.975V18.0231H132.68V19.9486C133.205 19.2873 133.876 18.7428 134.693 18.3149C135.51 17.887 136.336 17.6731 137.173 17.6731V21.2906C136.92 21.2323 136.579 21.2031 136.152 21.2031C135.529 21.2031 134.868 21.3587 134.168 21.6699C133.467 21.9811 132.972 22.3603 132.68 22.8077V32.1142ZM143.193 32.1142H139.488V18.0231H143.193V19.9486C143.718 19.2873 144.389 18.7428 145.206 18.3149C146.023 17.887 146.849 17.6731 147.686 17.6731V21.2906C147.433 21.2323 147.092 21.2031 146.664 21.2031C146.042 21.2031 145.381 21.3587 144.681 21.6699C143.98 21.9811 143.484 22.3603 143.193 22.8077V32.1142ZM162.166 32.1142H158.461V30.6555C157.45 31.8614 155.962 32.4643 153.997 32.4643C152.733 32.4643 151.595 32.0558 150.584 31.239C149.592 30.4027 149.096 29.2551 149.096 27.7964C149.096 26.2794 149.582 25.1416 150.555 24.3831C151.547 23.6246 152.694 23.2453 153.997 23.2453C156.001 23.2453 157.489 23.819 158.461 24.9666V23.0702C158.461 22.3506 158.179 21.7769 157.615 21.349C157.051 20.9211 156.302 20.7071 155.369 20.7071C153.832 20.7071 152.461 21.2615 151.255 22.3701L149.855 19.8903C151.527 18.4121 153.579 17.6731 156.01 17.6731C157.819 17.6731 159.297 18.0912 160.445 18.9275C161.592 19.7639 162.166 21.1253 162.166 23.0119V32.1142ZM155.485 29.9553C156.866 29.9553 157.858 29.5469 158.461 28.73V26.9796C157.858 26.1627 156.866 25.7543 155.485 25.7543C154.727 25.7543 154.095 25.9488 153.589 26.3377C153.083 26.7073 152.83 27.2227 152.83 27.884C152.83 28.5258 153.083 29.0315 153.589 29.401C154.095 29.7705 154.727 29.9553 155.485 29.9553Z" fill="white"/>
<path d="M25.7535 6.82074C25.7535 4.53124 28.5436 3.40933 30.1286 5.0615L44.7505 20.3034C45.7025 21.2958 46.2342 22.6179 46.2342 23.9931V41.6803C46.2342 43.9698 43.4441 45.0917 41.8591 43.4395L27.2372 28.1976C26.2851 27.2052 25.7535 25.8831 25.7535 24.5079V6.82074Z" fill="white"/>
<path d="M13.0609 6.31976C13.0609 4.03026 15.851 2.90835 17.4359 4.56053L31.8446 19.5801C32.9335 20.7152 33.5415 22.2272 33.5415 23.8001V41.1793C33.5415 43.4688 30.7515 44.5907 29.1665 42.9385L14.5446 27.6966C13.5925 26.7042 13.0609 25.3822 13.0609 24.0069V6.31976Z" fill="#4CBFFF"/>
<path d="M0.793823 6.82074C0.793823 4.53124 3.58388 3.40933 5.16885 5.0615L19.7908 20.3034C20.7428 21.2958 21.2744 22.6179 21.2744 23.9931V41.6803C21.2744 43.9698 18.4844 45.0917 16.8994 43.4395L2.2775 28.1976C1.32543 27.2052 0.793823 25.8831 0.793823 24.5079V6.82074Z" fill="#4A3AFF"/>
</svg>
